<svg xmlns="http://www.w3.org/2000/svg" viewBox="0 0 1200 800" width="1200" height="800">
  <!-- Background -->
  <rect width="1200" height="800" fill="#f8f9fa"/>
  
  <!-- Header -->
  <rect x="0" y="0" width="1200" height="100" fill="#FF6B35"/>
  
  <!-- Logo and Title -->
  <circle cx="80" cy="50" r="30" fill="#fff" opacity="0.2"/>
  <text x="80" y="58" font-family="Arial, sans-serif" font-size="20" text-anchor="middle" fill="#fff">游꼢</text>
  <text x="130" y="45" font-family="Arial, sans-serif" font-size="28" font-weight="bold" fill="#fff">Burger Club</text>
  <text x="130" y="70" font-family="Arial, sans-serif" font-size="14" fill="#fff">La mejor experiencia gastron칩mica</text>
  
  <!-- Navigation -->
  <text x="500" y="55" font-family="Arial, sans-serif" font-size="16" fill="#fff">Inicio</text>
  <text x="570" y="55" font-family="Arial, sans-serif" font-size="16" fill="#fff" text-decoration="underline">Men칰</text>
  <text x="630" y="55" font-family="Arial, sans-serif" font-size="16" fill="#fff">Nosotros</text>
  <text x="710" y="55" font-family="Arial, sans-serif" font-size="16" fill="#fff">Contacto</text>
  
  <!-- User Actions -->
  <rect x="950" y="30" width="80" height="40" fill="#fff" rx="20"/>
  <text x="990" y="53" font-family="Arial, sans-serif" font-size="14" text-anchor="middle" fill="#FF6B35">Iniciar Sesi칩n</text>
  
  <rect x="1050" y="30" width="120" height="40" fill="#E55A2B" rx="20"/>
  <text x="1110" y="53" font-family="Arial, sans-serif" font-size="14" text-anchor="middle" fill="#fff">Carrito (0)</text>
  
  <!-- Search Bar -->
  <rect x="50" y="130" width="400" height="50" fill="#fff" rx="25" stroke="#ddd" stroke-width="1"/>
  <text x="70" y="160" font-family="Arial, sans-serif" font-size="14" fill="#999">游댌 Buscar productos...</text>
  
  <!-- Category Filters -->
  <rect x="500" y="130" width="650" height="50" fill="#fff" rx="10" stroke="#ddd" stroke-width="1"/>
  
  <rect x="520" y="145" width="100" height="20" fill="#FF6B35" rx="10"/>
  <text x="570" y="158" font-family="Arial, sans-serif" font-size="12" text-anchor="middle" fill="#fff">Todas</text>
  
  <rect x="640" y="145" width="100" height="20" fill="#f8f9fa" rx="10" stroke="#ddd" stroke-width="1"/>
  <text x="690" y="158" font-family="Arial, sans-serif" font-size="12" text-anchor="middle" fill="#666">游꼢 Hamburguesas</text>
  
  <rect x="760" y="145" width="100" height="20" fill="#f8f9fa" rx="10" stroke="#ddd" stroke-width="1"/>
  <text x="810" y="158" font-family="Arial, sans-serif" font-size="12" text-anchor="middle" fill="#666">游꺐 Perros</text>
  
  <rect x="880" y="145" width="100" height="20" fill="#f8f9fa" rx="10" stroke="#ddd" stroke-width="1"/>
  <text x="930" y="158" font-family="Arial, sans-serif" font-size="12" text-anchor="middle" fill="#666">游 Acompa침amientos</text>
  
  <rect x="1000" y="145" width="100" height="20" fill="#f8f9fa" rx="10" stroke="#ddd" stroke-width="1"/>
  <text x="1050" y="158" font-family="Arial, sans-serif" font-size="12" text-anchor="middle" fill="#666">游볷 Bebidas</text>
  
  <!-- Product Grid -->
  <!-- Product 1 -->
  <rect x="50" y="220" width="280" height="350" fill="#fff" rx="15" stroke="#ddd" stroke-width="1"/>
  <rect x="60" y="230" width="260" height="180" fill="#f8f9fa" rx="10"/>
  <circle cx="190" cy="320" r="60" fill="#FF6B35"/>
  <text x="190" y="330" font-family="Arial, sans-serif" font-size="40" text-anchor="middle" fill="#fff">游꼢</text>
  
  <text x="70" y="440" font-family="Arial, sans-serif" font-size="18" font-weight="bold" fill="#2c3e50">Hamburguesa Cl치sica</text>
  <text x="70" y="460" font-family="Arial, sans-serif" font-size="14" fill="#7f8c8d">Carne de res, lechuga, tomate, cebolla</text>
  <text x="70" y="480" font-family="Arial, sans-serif" font-size="14" fill="#7f8c8d">y salsa especial en pan artesanal</text>
  
  <text x="70" y="510" font-family="Arial, sans-serif" font-size="20" font-weight="bold" fill="#FF6B35">$12.99</text>
  <rect x="200" y="490" width="110" height="35" fill="#FF6B35" rx="18"/>
  <text x="255" y="512" font-family="Arial, sans-serif" font-size="14" text-anchor="middle" fill="#fff">Agregar al carrito</text>
  
  <rect x="70" y="540" width="60" height="20" fill="#e74c3c" rx="10"/>
  <text x="100" y="553" font-family="Arial, sans-serif" font-size="10" text-anchor="middle" fill="#fff">NUEVO</text>
  
  <!-- Product 2 -->
  <rect x="350" y="220" width="280" height="350" fill="#fff" rx="15" stroke="#ddd" stroke-width="1"/>
  <rect x="360" y="230" width="260" height="180" fill="#f8f9fa" rx="10"/>
  <circle cx="490" cy="320" r="60" fill="#FF6B35"/>
  <text x="490" y="330" font-family="Arial, sans-serif" font-size="40" text-anchor="middle" fill="#fff">游꺐</text>
  
  <text x="370" y="440" font-family="Arial, sans-serif" font-size="18" font-weight="bold" fill="#2c3e50">Perro Caliente Especial</text>
  <text x="370" y="460" font-family="Arial, sans-serif" font-size="14" fill="#7f8c8d">Salchicha premium, queso cheddar,</text>
  <text x="370" y="480" font-family="Arial, sans-serif" font-size="14" fill="#7f8c8d">cebolla caramelizada y mostaza</text>
  
  <text x="370" y="510" font-family="Arial, sans-serif" font-size="20" font-weight="bold" fill="#FF6B35">$8.99</text>
  <rect x="500" y="490" width="110" height="35" fill="#FF6B35" rx="18"/>
  <text x="555" y="512" font-family="Arial, sans-serif" font-size="14" text-anchor="middle" fill="#fff">Agregar al carrito</text>
  
  <rect x="370" y="540" width="60" height="20" fill="#f39c12" rx="10"/>
  <text x="400" y="553" font-family="Arial, sans-serif" font-size="10" text-anchor="middle" fill="#fff">POPULAR</text>
  
  <!-- Product 3 -->
  <rect x="650" y="220" width="280" height="350" fill="#fff" rx="15" stroke="#ddd" stroke-width="1"/>
  <rect x="660" y="230" width="260" height="180" fill="#f8f9fa" rx="10"/>
  <circle cx="790" cy="320" r="60" fill="#FF6B35"/>
  <text x="790" y="330" font-family="Arial, sans-serif" font-size="40" text-anchor="middle" fill="#fff">游</text>
  
  <text x="670" y="440" font-family="Arial, sans-serif" font-size="18" font-weight="bold" fill="#2c3e50">Papas Fritas Grandes</text>
  <text x="670" y="460" font-family="Arial, sans-serif" font-size="14" fill="#7f8c8d">Papas cortadas a mano, fritas</text>
  <text x="670" y="480" font-family="Arial, sans-serif" font-size="14" fill="#7f8c8d">hasta el punto perfecto</text>
  
  <text x="670" y="510" font-family="Arial, sans-serif" font-size="20" font-weight="bold" fill="#FF6B35">$4.99</text>
  <rect x="800" y="490" width="110" height="35" fill="#FF6B35" rx="18"/>
  <text x="855" y="512" font-family="Arial, sans-serif" font-size="14" text-anchor="middle" fill="#fff">Agregar al carrito</text>
  
  <!-- Product 4 -->
  <rect x="950" y="220" width="200" height="350" fill="#fff" rx="15" stroke="#ddd" stroke-width="1"/>
  <rect x="960" y="230" width="180" height="180" fill="#f8f9fa" rx="10"/>
  <circle cx="1050" cy="320" r="50" fill="#FF6B35"/>
  <text x="1050" y="330" font-family="Arial, sans-serif" font-size="30" text-anchor="middle" fill="#fff">游볷</text>
  
  <text x="970" y="440" font-family="Arial, sans-serif" font-size="16" font-weight="bold" fill="#2c3e50">Coca Cola 500ml</text>
  <text x="970" y="460" font-family="Arial, sans-serif" font-size="12" fill="#7f8c8d">Bebida refrescante</text>
  <text x="970" y="480" font-family="Arial, sans-serif" font-size="12" fill="#7f8c8d">bien fr칤a</text>
  
  <text x="970" y="510" font-family="Arial, sans-serif" font-size="18" font-weight="bold" fill="#FF6B35">$2.99</text>
  <rect x="970" y="530" width="160" height="30" fill="#FF6B35" rx="15"/>
  <text x="1050" y="550" font-family="Arial, sans-serif" font-size="12" text-anchor="middle" fill="#fff">Agregar al carrito</text>
  
  <!-- Pagination -->
  <rect x="500" y="620" width="200" height="40" fill="#fff" rx="20" stroke="#ddd" stroke-width="1"/>
  <circle cx="530" cy="640" r="15" fill="#FF6B35"/>
  <text x="530" y="645" font-family="Arial, sans-serif" font-size="12" text-anchor="middle" fill="#fff">1</text>
  
  <circle cx="570" cy="640" r="15" fill="#f8f9fa" stroke="#ddd" stroke-width="1"/>
  <text x="570" y="645" font-family="Arial, sans-serif" font-size="12" text-anchor="middle" fill="#666">2</text>
  
  <circle cx="610" cy="640" r="15" fill="#f8f9fa" stroke="#ddd" stroke-width="1"/>
  <text x="610" y="645" font-family="Arial, sans-serif" font-size="12" text-anchor="middle" fill="#666">3</text>
  
  <text x="650" y="645" font-family="Arial, sans-serif" font-size="12" fill="#666">...</text>
  
  <circle cx="680" cy="640" r="15" fill="#f8f9fa" stroke="#ddd" stroke-width="1"/>
  <text x="680" y="645" font-family="Arial, sans-serif" font-size="12" text-anchor="middle" fill="#666">></text>
  
  <!-- Footer Info -->
  <rect x="0" y="700" width="1200" height="100" fill="#2c3e50"/>
  <text x="50" y="730" font-family="Arial, sans-serif" font-size="16" font-weight="bold" fill="#fff">游꼢 Burger Club</text>
  <text x="50" y="750" font-family="Arial, sans-serif" font-size="12" fill="#bdc3c7">La mejor experiencia gastron칩mica</text>
  <text x="50" y="770" font-family="Arial, sans-serif" font-size="12" fill="#bdc3c7">游늸 Direcci칩n: Calle Principal 123</text>
  <text x="50" y="785" font-family="Arial, sans-serif" font-size="12" fill="#bdc3c7">游 Tel칠fono: (555) 123-4567</text>
  
  <text x="400" y="730" font-family="Arial, sans-serif" font-size="14" font-weight="bold" fill="#fff">Horarios</text>
  <text x="400" y="750" font-family="Arial, sans-serif" font-size="12" fill="#bdc3c7">Lun - Vie: 11:00 AM - 10:00 PM</text>
  <text x="400" y="770" font-family="Arial, sans-serif" font-size="12" fill="#bdc3c7">S치b - Dom: 12:00 PM - 11:00 PM</text>
  
  <text x="700" y="730" font-family="Arial, sans-serif" font-size="14" font-weight="bold" fill="#fff">S칤guenos</text>
  <text x="700" y="750" font-family="Arial, sans-serif" font-size="12" fill="#bdc3c7">游닂 Facebook</text>
  <text x="700" y="770" font-family="Arial, sans-serif" font-size="12" fill="#bdc3c7">游닝 Instagram</text>
  
  <text x="1000" y="750" font-family="Arial, sans-serif" font-size="12" fill="#bdc3c7">춸 2024 Burger Club</text>
  <text x="1000" y="770" font-family="Arial, sans-serif" font-size="12" fill="#bdc3c7">Todos los derechos reservados</text>
</svg>